<?xml version="1.0" standalone="no"?>
<!DOCTYPE svg PUBLIC "-//W3C//DTD SVG 20010904//EN"
 "http://www.w3.org/TR/2001/REC-SVG-20010904/DTD/svg10.dtd">
<svg version="1.0" xmlns="http://www.w3.org/2000/svg"
 width="360.000000pt" height="360.000000pt" viewBox="0 0 360.000000 360.000000"
 preserveAspectRatio="xMidYMid meet">

<g transform="translate(0.000000,360.000000) scale(0.100000,-0.100000)"
fill="#000000" stroke="none">
<path d="M1730 3094 c0 -9 -18 -103 -39 -208 -93 -449 -220 -1074 -226 -1107
-7 -36 -6 -37 29 -41 34 -4 36 -2 36 24 0 66 58 149 125 179 60 28 146 25 204
-6 58 -33 102 -93 109 -151 5 -44 5 -44 44 -44 34 0 39 3 33 18 -3 11 -53 232
-110 493 -58 261 -124 561 -147 666 -24 106 -46 193 -50 193 -5 0 -8 -7 -8
-16z"/>
<path d="M1972 1710 c0 -14 2 -19 5 -12 2 6 2 18 0 25 -3 6 -5 1 -5 -13z"/>
<path d="M1950 1642 c0 -6 -12 -25 -27 -44 -22 -27 -23 -29 -4 -13 27 23 45
54 37 63 -3 3 -6 0 -6 -6z"/>
<path d="M1753 1513 c9 -2 23 -2 30 0 6 3 -1 5 -18 5 -16 0 -22 -2 -12 -5z"/>
</g>
</svg>
