<?xml version="1.0" standalone="no"?>
<!DOCTYPE svg PUBLIC "-//W3C//DTD SVG 20010904//EN"
 "http://www.w3.org/TR/2001/REC-SVG-20010904/DTD/svg10.dtd">
<svg version="1.0" xmlns="http://www.w3.org/2000/svg"
 width="360.000000pt" height="360.000000pt" viewBox="0 0 360.000000 360.000000"
 preserveAspectRatio="xMidYMid meet">

<g transform="translate(0.000000,360.000000) scale(0.100000,-0.100000)"
fill="#000000" stroke="none">
<path d="M1700 3310 l0 -120 25 0 c24 0 25 2 25 78 l1 77 40 -77 c36 -71 42
-78 69 -78 l30 0 0 121 0 120 -27 -3 -28 -3 2 -78 3 -78 -42 80 c-37 73 -44
81 -69 81 l-29 0 0 -120z"/>
<path d="M1781 2828 c-12 -128 -25 -243 -28 -255 -3 -16 -14 -23 -36 -26 l-32
-4 33 -1 c24 -2 32 -7 32 -21 0 -11 -4 -22 -9 -25 -4 -3 -6 -16 -4 -29 4 -21
-1 -24 -54 -35 -33 -7 -69 -12 -80 -12 -12 0 -23 -3 -25 -7 -6 -15 -119 -63
-130 -57 -6 4 -8 3 -5 -3 8 -13 -40 -46 -54 -38 -5 4 -8 2 -7 -3 5 -15 -71
-84 -84 -76 -7 4 -8 3 -4 -5 10 -15 -14 -37 -41 -37 -13 0 -23 2 -23 4 0 2 24
28 53 58 35 37 58 53 70 50 14 -3 16 -1 7 9 -15 18 71 69 103 60 15 -4 18 -3
9 3 -18 13 8 33 36 27 14 -2 19 0 16 10 -6 14 8 19 121 46 76 18 82 20 66 26
-20 8 -138 -26 -216 -62 -196 -91 -353 -277 -405 -480 -20 -78 -28 -150 -11
-95 5 14 14 50 21 80 15 67 20 76 31 59 6 -10 9 -10 9 -2 0 6 -4 14 -9 17 -9
6 42 121 59 131 6 3 8 10 5 15 -6 10 37 22 47 12 4 -4 -2 -18 -13 -32 l-20
-25 6 25 c7 24 7 24 -8 5 -11 -15 -12 -22 -4 -27 9 -5 9 -12 1 -25 -36 -60
-62 -125 -74 -192 -6 -30 -8 -56 -5 -59 6 -6 10 7 24 79 7 31 27 87 45 125 34
71 113 184 128 184 4 0 87 -78 184 -172 l176 -173 -98 -12 c-54 -7 -100 -10
-103 -8 -3 3 5 27 17 53 13 26 16 38 7 27 -8 -10 -21 -34 -27 -52 -7 -18 -18
-33 -25 -33 -9 0 -10 6 -2 27 25 66 68 125 69 96 1 -5 19 -28 42 -53 49 -53
44 -46 -56 86 -42 56 -84 108 -93 115 -9 8 6 -16 35 -52 l51 -67 -41 -80 -40
-79 -152 -12 c-83 -7 -172 -16 -198 -20 l-48 -8 0 32 c0 56 39 187 80 270 94
187 253 327 455 397 44 16 64 26 45 22 -150 -26 -351 -171 -460 -329 -64 -93
-130 -276 -130 -360 l0 -32 -237 -23 c-131 -12 -256 -26 -278 -30 l-40 -8 41
-1 c23 -1 57 -3 75 -6 29 -4 30 -3 9 4 -15 5 223 9 599 10 l625 1 -30 -32
c-84 -91 -81 -89 -169 -85 -44 2 -63 2 -42 0 20 -2 37 -7 37 -10 0 -14 -63
-82 -71 -77 -9 5 -49 78 -49 88 0 2 8 7 18 9 9 3 -2 5 -26 6 -40 1 -43 -1 -37
-21 7 -24 36 -84 56 -116 11 -17 6 -28 -36 -83 -81 -107 -126 -159 -138 -159
-6 0 -8 3 -4 6 3 3 -4 16 -15 28 -28 28 -92 127 -108 165 -13 33 -30 41 -30
16 0 -8 5 -15 12 -15 9 0 9 -3 0 -12 -16 -16 -15 -33 1 -19 11 8 17 3 29 -22
9 -17 31 -52 49 -77 36 -48 43 -67 28 -76 -5 -3 -9 3 -9 13 0 13 -3 14 -8 5
-6 -9 -14 -4 -30 18 -12 16 -22 34 -22 40 0 5 -4 10 -10 10 -16 0 -50 76 -50
112 0 18 -5 40 -10 48 -7 11 -9 5 -5 -20 l5 -35 -16 35 c-9 18 -17 54 -19 79
-1 25 -8 47 -14 49 -19 6 -12 19 13 24 20 4 25 1 24 -16 -2 -30 23 -117 32
-111 4 2 0 36 -9 74 -15 68 -16 69 -43 64 -17 -3 -28 -1 -28 6 0 7 25 11 72
11 96 0 83 6 -27 13 -49 3 -82 3 -72 0 12 -3 17 -15 17 -39 0 -19 5 -34 11
-34 5 0 7 -4 4 -10 -10 -17 26 -123 72 -208 75 -139 201 -256 347 -322 71 -33
170 -60 215 -60 27 0 31 -4 31 -26 0 -26 -1 -27 -54 -20 -30 3 -82 15 -117 26
-35 10 -65 17 -67 15 -7 -7 133 -46 188 -52 l56 -5 28 -272 c16 -149 29 -272
31 -274 7 -9 14 112 6 122 -10 12 -16 1216 -6 1216 4 0 34 -23 67 -52 l60 -52
-5 -71 c-3 -38 -3 -60 0 -47 4 23 5 23 51 -14 26 -21 51 -41 56 -45 10 -9 -91
-69 -116 -69 -15 0 -18 -8 -17 -42 2 -40 2 -41 8 -11 5 27 16 37 78 68 l72 37
101 -78 c56 -43 105 -84 108 -92 10 -27 -132 -121 -237 -158 -42 -14 -83 -30
-92 -34 -9 -5 -25 -7 -35 -6 -17 3 -19 11 -17 67 l2 64 -9 -55 c-13 -87 -22
-226 -13 -214 4 7 19 14 33 17 24 4 24 4 -3 6 -23 1 -28 5 -25 23 3 19 13 24
70 34 137 25 300 116 400 221 78 84 156 226 182 336 5 22 4 27 -6 21 -7 -4 -5
2 5 13 9 11 17 34 17 51 0 19 5 32 13 32 6 0 53 5 102 10 50 5 180 19 290 30
191 20 249 30 173 30 -19 0 -55 2 -79 4 -35 3 -38 2 -14 -4 17 -4 -248 -8
-587 -9 -340 0 -618 3 -618 8 0 4 27 31 59 60 48 41 66 51 95 51 20 0 36 3 36
8 1 4 16 24 34 46 l33 39 27 -44 c14 -24 26 -39 26 -34 0 6 -11 27 -25 47 -29
42 -30 48 -12 48 14 0 49 -57 62 -99 6 -18 4 -23 -6 -19 -8 3 -23 2 -34 -3
-14 -5 -7 -8 27 -8 l48 -1 -41 79 -41 79 83 106 c46 58 89 106 94 106 15 -1
99 -118 120 -167 10 -23 22 -40 26 -37 4 2 7 -4 7 -13 -1 -10 7 -46 16 -79 26
-100 29 -97 -71 -91 -74 5 -79 4 -28 -3 89 -12 234 -20 205 -11 -16 5 -24 14
-22 24 6 33 -31 153 -71 235 -87 175 -231 306 -411 370 -93 34 -166 49 -166
34 0 -5 17 -13 38 -16 68 -11 81 -14 133 -31 38 -13 48 -20 38 -27 -11 -8 -10
-9 3 -4 25 8 134 -61 130 -82 -2 -15 -1 -15 8 -2 9 13 11 13 19 0 7 -10 6 -17
-2 -23 -8 -6 -5 -7 7 -3 20 7 61 -26 48 -38 -3 -4 2 -4 13 0 11 4 17 4 13 0
-4 -5 2 -18 13 -29 13 -14 15 -23 8 -28 -8 -5 -8 -8 0 -13 6 -4 11 -2 11 4 0
6 5 8 11 4 7 -4 6 -11 -5 -22 -14 -14 -17 -13 -38 14 -13 16 -22 32 -21 36 2
5 -4 8 -13 8 -9 0 -12 5 -8 12 4 6 3 8 -2 5 -6 -3 -28 10 -49 30 -50 46 -134
100 -169 109 -14 3 -23 11 -20 16 4 6 -1 8 -13 4 -11 -4 -35 0 -54 8 -32 13
-32 14 -9 18 14 2 -1 4 -32 5 -34 1 -58 -3 -58 -9 0 -6 7 -8 15 -5 8 4 17 3
19 -2 3 -4 30 -13 60 -20 88 -20 170 -64 262 -142 l31 -26 -36 -29 c-20 -16
-70 -54 -113 -86 l-76 -56 -75 36 -75 37 -11 105 c-7 58 -14 137 -16 177 -2
39 -5 75 -8 80 -3 4 -18 133 -33 286 -16 152 -31 277 -34 277 -3 0 -16 -105
-29 -232z m-57 -533 c-7 -66 -13 -129 -14 -140 -1 -18 -20 -30 -151 -93 -5 -2
-103 68 -187 136 l-44 35 29 24 c48 42 111 83 167 109 61 28 198 64 207 55 4
-3 0 -60 -7 -126z m-464 -115 c0 -5 -4 -10 -10 -10 -5 0 -10 5 -10 10 0 6 5
10 10 10 6 0 10 -4 10 -10z m1156 -34 c-3 -11 -1 -28 5 -36 8 -12 9 -10 4 8
-8 28 1 29 15 1 9 -15 8 -24 -1 -37 -11 -14 -11 -15 1 -4 16 14 34 16 25 3 -3
-5 -1 -12 5 -16 5 -3 10 -17 10 -31 0 -14 4 -23 9 -20 5 3 11 -7 14 -22 3 -15
11 -49 17 -77 17 -74 17 -80 -6 -83 -19 -3 -22 3 -27 58 -3 33 -10 67 -17 75
-6 8 -9 18 -6 23 3 5 -2 19 -10 31 -40 56 -73 135 -62 148 15 18 31 5 24 -21z
m-206 10 c0 -6 -257 -258 -266 -259 -9 -2 -12 18 -18 115 -3 43 -7 82 -11 88
-11 19 27 10 76 -17 44 -23 62 -43 42 -43 -9 -1 -100 -80 -92 -80 3 0 63 45
135 100 129 100 134 103 134 96z m-500 -51 c0 -2 -22 -16 -49 -30 -27 -13 -53
-30 -57 -36 -3 -6 13 0 38 15 25 14 48 26 51 26 9 0 7 -67 -2 -98 -6 -24 -7
-23 -64 21 l-59 46 54 30 c47 28 88 39 88 26z m825 -452 c-3 -16 -11 -30 -16
-31 -5 -2 -7 -19 -3 -38 4 -22 2 -34 -5 -34 -6 0 -8 -6 -5 -14 3 -7 -2 -16
-10 -19 -9 -4 -16 -12 -16 -19 0 -9 3 -8 10 2 25 39 5 -14 -33 -86 -25 -48
-47 -79 -55 -77 -8 3 -10 -1 -5 -13 5 -13 3 -16 -10 -11 -11 4 -14 2 -10 -9 3
-7 0 -14 -5 -14 -19 0 -24 21 -10 38 14 18 26 39 69 116 17 30 29 43 32 35 4
-8 4 -2 1 12 -3 14 2 43 10 63 9 21 15 40 14 44 -1 4 2 18 6 31 5 13 4 27 -2
33 -6 6 -12 -7 -17 -39 -15 -101 -90 -256 -153 -316 l-29 -28 -26 31 c-15 17
-29 29 -31 28 -7 -3 -286 274 -286 283 0 12 185 26 192 15 5 -7 8 -7 8 2 0 6
5 12 10 12 6 0 10 -7 10 -16 0 -21 -50 -114 -62 -114 -13 0 -9 17 13 55 12 20
20 38 17 40 -2 2 -12 -11 -23 -30 -20 -38 -32 -44 -41 -20 -4 8 -10 15 -15 15
-10 0 135 -193 160 -213 8 -7 -10 21 -41 61 l-56 74 33 61 c17 34 34 69 37 77
5 15 161 35 292 39 l58 1 -7 -27z m-1051 -50 c9 -21 23 -48 32 -60 9 -13 11
-23 5 -27 -10 -7 -71 89 -71 112 0 25 18 11 34 -25z m212 -85 c5 -51 6 -94 2
-96 -10 -5 -88 37 -88 47 0 4 17 20 37 34 21 15 34 27 29 27 -8 0 -73 -45 -86
-59 -3 -4 -39 -32 -82 -64 -42 -32 -82 -65 -90 -75 -7 -9 10 1 37 24 28 22 63
49 79 61 l29 20 71 -36 c39 -20 72 -37 74 -37 5 -2 32 -249 32 -298 l0 -48
-37 7 c-102 18 -246 72 -236 87 3 6 -4 7 -18 3 -13 -4 -21 -4 -17 0 6 7 -41
45 -62 50 -23 7 -40 19 -40 30 0 8 -12 23 -26 34 -24 19 -26 41 -3 41 6 0 7
-4 4 -10 -3 -5 0 -7 7 -5 16 6 60 -39 50 -51 -4 -4 -1 -4 5 0 7 4 22 -2 35
-13 12 -12 27 -21 32 -21 6 0 4 -5 -4 -11 -13 -9 -13 -10 0 -6 13 4 65 -18 80
-33 7 -7 68 -27 109 -35 18 -4 29 -10 23 -14 -5 -3 12 -7 40 -7 62 -2 51 9
-27 26 -99 21 -208 76 -294 150 l-25 21 26 27 c120 127 313 322 319 322 4 0
11 -42 15 -92z m-39 -89 c53 -24 67 -39 37 -39 -25 0 -114 52 -108 62 3 5 9 7
12 5 4 -1 31 -14 59 -28z m701 -142 c8 -9 2 -21 -19 -45 l-29 -33 -10 26 c-13
34 -13 35 6 28 8 -3 13 -12 10 -19 -8 -22 0 -17 18 10 10 16 12 27 6 31 -6 4
-10 3 -9 -2 3 -17 -1 -24 -11 -18 -8 5 -7 11 1 21 14 17 23 18 37 1z m-65 -89
c-6 -12 -23 -10 -23 3 0 5 5 7 12 3 7 -4 8 -3 4 5 -10 16 -28 3 -24 -17 5 -26
-97 -95 -131 -88 -14 3 -33 1 -41 -4 -11 -8 -8 -9 13 -4 15 3 27 3 27 0 0 -12
-74 -36 -92 -30 -10 3 -18 1 -18 -5 0 -6 -17 -15 -37 -20 -94 -25 -93 -25 -93
-3 0 19 24 28 98 35 12 1 22 5 22 10 0 4 6 7 13 7 7 0 31 9 52 20 22 11 46 18
53 15 7 -3 11 -1 8 3 -7 12 93 64 107 56 9 -5 9 -3 0 6 -10 11 -8 17 15 32 25
17 27 17 33 0 4 -9 5 -20 2 -24z"/>
<path d="M2501 1910 c0 -8 4 -22 9 -30 12 -18 12 -2 0 25 -6 13 -9 15 -9 5z"/>
<path d="M1941 2076 c10 -9 69 -36 69 -32 0 6 -55 36 -66 36 -4 0 -5 -2 -3 -4z"/>
<path d="M2435 1419 c-9 -17 -15 -33 -13 -35 3 -2 12 12 21 31 21 43 13 47 -8
4z"/>
<path d="M1316 1233 c6 -4 16 -18 23 -30 6 -13 17 -23 24 -23 7 0 8 3 2 8 -5
4 -15 16 -21 26 -6 11 -17 22 -25 24 -9 2 -10 1 -3 -5z"/>
<path d="M2195 1150 c-3 -5 -1 -10 4 -10 6 0 11 5 11 10 0 6 -2 10 -4 10 -3 0
-8 -4 -11 -10z"/>
<path d="M1960 2529 c97 -22 173 -50 243 -91 27 -16 46 -24 43 -19 -25 40
-275 133 -351 130 -11 0 18 -9 65 -20z"/>
<path d="M1648 2533 c6 -2 18 -2 25 0 6 3 1 5 -13 5 -14 0 -19 -2 -12 -5z"/>
<path d="M1698 2453 c7 -3 16 -2 19 1 4 3 -2 6 -13 5 -11 0 -14 -3 -6 -6z"/>
<path d="M2300 2374 c154 -130 237 -263 285 -449 12 -49 14 -52 10 -17 -11 92
-71 225 -150 332 -40 54 -130 142 -165 160 -14 7 -5 -5 20 -26z"/>
<path d="M1415 2350 c-3 -5 -1 -10 4 -10 6 0 11 5 11 10 0 6 -2 10 -4 10 -3 0
-8 -4 -11 -10z"/>
<path d="M1165 2069 c-4 -6 -5 -12 -2 -15 2 -3 7 2 10 11 7 17 1 20 -8 4z"/>
<path d="M1116 1953 c-6 -14 -5 -15 5 -6 7 7 10 15 7 18 -3 3 -9 -2 -12 -12z"/>
<path d="M150 1877 c0 -6 9 -59 20 -117 11 -58 20 -106 20 -107 0 -2 17 -3 39
-3 l38 0 13 78 14 77 15 -77 14 -78 39 0 c21 0 38 1 38 3 0 1 9 49 20 107 26
134 26 132 -7 128 -27 -3 -28 -6 -37 -85 -5 -46 -12 -83 -16 -83 -4 0 -10 24
-13 53 -10 84 -25 117 -52 117 -21 0 -25 -8 -39 -69 -9 -39 -16 -80 -17 -93
-1 -22 -1 -22 -8 3 -5 14 -11 55 -15 92 -7 66 -8 67 -37 67 -17 0 -29 -5 -29
-13z"/>
<path d="M3200 1770 l0 -120 80 0 c79 0 80 0 80 26 0 24 -2 25 -47 23 -46 -3
-48 -2 -51 24 -3 25 -1 27 37 27 37 0 41 2 41 25 0 23 -4 25 -40 25 -33 0 -40
3 -40 20 0 17 7 20 50 20 47 0 50 2 50 25 0 25 -1 25 -80 25 l-80 0 0 -120z"/>
<path d="M2048 1863 c12 -2 30 -2 40 0 9 3 -1 5 -23 4 -22 0 -30 -2 -17 -4z"/>
<path d="M2601 1833 c-1 -33 0 -33 42 -31 l42 1 -37 4 c-31 4 -37 8 -41 31 -4
24 -4 24 -6 -5z"/>
<path d="M2233 1843 c15 -2 37 -2 50 0 12 2 0 4 -28 4 -27 0 -38 -2 -22 -4z"/>
<path d="M2713 1793 c15 -2 39 -2 55 0 15 2 2 4 -28 4 -30 0 -43 -2 -27 -4z"/>
<path d="M2818 1783 c12 -2 32 -2 45 0 12 2 2 4 -23 4 -25 0 -35 -2 -22 -4z"/>
<path d="M2913 1773 c15 -2 37 -2 50 0 12 2 0 4 -28 4 -27 0 -38 -2 -22 -4z"/>
<path d="M685 1720 c52 -9 141 -13 134 -6 -2 2 -44 6 -94 9 -66 4 -77 3 -40
-3z"/>
<path d="M918 1697 c91 -10 92 -10 92 -37 0 -65 83 -310 105 -310 3 0 -5 21
-19 48 -34 68 -67 179 -71 242 l-4 55 -58 6 c-32 4 -76 7 -98 6 -22 0 2 -4 53
-10z"/>
<path d="M2602 1660 c0 -14 2 -19 5 -12 2 6 2 18 0 25 -3 6 -5 1 -5 -13z"/>
<path d="M1248 1663 c12 -2 32 -2 45 0 12 2 2 4 -23 4 -25 0 -35 -2 -22 -4z"/>
<path d="M1348 1653 c12 -2 32 -2 45 0 12 2 2 4 -23 4 -25 0 -35 -2 -22 -4z"/>
<path d="M2582 1574 c-6 -32 -10 -59 -8 -61 6 -6 28 95 24 108 -2 6 -9 -15
-16 -47z"/>
<path d="M2536 1434 c-63 -143 -174 -274 -297 -350 -58 -36 -80 -56 -36 -33
101 54 217 162 280 262 35 56 91 176 85 182 -2 2 -17 -25 -32 -61z"/>
<path d="M1923 1450 c0 -25 2 -35 4 -22 2 12 2 32 0 45 -2 12 -4 2 -4 -23z"/>
<path d="M1970 1440 c-19 -11 -31 -19 -27 -20 11 0 67 29 67 35 0 7 -1 7 -40
-15z"/>
<path d="M1184 1407 c3 -10 6 -24 6 -31 0 -7 7 -13 14 -13 15 0 11 13 -15 47
-9 13 -10 12 -5 -3z"/>
<path d="M1137 1311 c45 -84 201 -225 310 -280 70 -35 63 -23 -12 19 -120 67
-210 148 -298 270 -17 24 -17 24 0 -9z"/>
<path d="M1903 1255 c0 -27 2 -38 4 -22 2 15 2 37 0 50 -2 12 -4 0 -4 -28z"/>
<path d="M2130 1022 c-19 -8 -71 -26 -115 -39 -44 -13 -62 -20 -40 -17 49 7
174 49 189 64 13 13 9 12 -34 -8z"/>
<path d="M1863 880 c0 -25 2 -35 4 -22 2 12 2 32 0 45 -2 12 -4 2 -4 -23z"/>
<path d="M1853 785 c0 -27 2 -38 4 -22 2 15 2 37 0 50 -2 12 -4 0 -4 -28z"/>
<path d="M1843 690 c0 -25 2 -35 4 -22 2 12 2 32 0 45 -2 12 -4 2 -4 -23z"/>
<path d="M1833 600 c0 -25 2 -35 4 -22 2 12 2 32 0 45 -2 12 -4 2 -4 -23z"/>
<path d="M1747 329 c-56 -34 -35 -105 37 -133 69 -26 55 -68 -15 -44 -25 9
-34 8 -47 -6 -16 -16 -16 -18 1 -31 26 -19 81 -27 110 -16 14 6 34 22 43 36
26 40 10 74 -50 105 -27 14 -48 30 -47 35 1 6 19 10 41 10 45 0 71 18 53 36
-16 16 -104 22 -126 8z"/>
</g>
</svg>
