<?xml version="1.0" standalone="no"?>
<!DOCTYPE svg PUBLIC "-//W3C//DTD SVG 20010904//EN"
 "http://www.w3.org/TR/2001/REC-SVG-20010904/DTD/svg10.dtd">
<svg version="1.0" xmlns="http://www.w3.org/2000/svg"
 width="512.000000pt" height="512.000000pt" viewBox="0 0 512.000000 512.000000"
 preserveAspectRatio="xMidYMid meet">

<g transform="translate(0.000000,512.000000) scale(0.100000,-0.100000)"
fill="#000000" stroke="none">
<path d="M2248 4915 c-195 -27 -404 -81 -550 -140 l-59 -24 -11 25 c-6 13 -15
24 -20 24 -16 0 -352 -92 -368 -100 -8 -5 -77 -70 -152 -146 l-137 -138 17
-33 18 -33 -121 -123 c-347 -352 -569 -783 -656 -1272 -27 -151 -37 -501 -20
-656 62 -546 298 -1037 686 -1424 353 -354 782 -577 1282 -667 113 -20 160
-23 398 -23 238 0 285 3 398 23 500 90 929 313 1282 667 378 377 610 848 680
1378 20 154 20 450 0 604 -70 530 -302 1001 -680 1378 -352 353 -784 578
-1280 666 -155 28 -555 36 -707 14z m523 -5 c567 -57 1057 -287 1454 -685 557
-556 793 -1316 655 -2100 -65 -367 -225 -722 -468 -1035 -83 -106 -271 -296
-377 -380 -546 -433 -1219 -602 -1910 -480 -464 82 -896 310 -1240 655 -345
344 -573 776 -655 1240 -136 768 87 1508 625 2073 48 51 101 102 118 114 27
19 30 20 39 5 7 -14 33 4 156 113 l147 129 178 62 c146 51 177 65 171 78 -19
47 11 63 230 127 277 80 600 111 877 84z"/>
<path d="M2542 4760 c4 -175 22 -177 26 -2 2 114 0 132 -13 132 -13 0 -15 -18
-13 -130z"/>
<path d="M2392 4765 c0 -38 3 -79 8 -90 12 -27 12 65 1 120 -8 36 -9 33 -9
-30z"/>
<path d="M2471 4825 c-4 -17 0 -150 5 -154 10 -10 11 8 4 84 -4 44 -8 76 -9
70z"/>
<path d="M2621 4748 c1 -57 4 -75 9 -58 12 37 12 140 0 140 -6 0 -10 -34 -9
-82z"/>
<path d="M2700 4791 c0 -21 -3 -60 -6 -87 -4 -33 -3 -46 3 -39 14 14 26 165
13 165 -6 0 -10 -17 -10 -39z"/>
<path d="M2315 4761 c3 -35 5 -72 5 -82 0 -11 4 -19 10 -19 6 0 7 24 3 63 -8
86 -25 120 -18 38z"/>
<path d="M2776 4774 c-3 -26 -6 -63 -5 -83 l1 -36 8 30 c12 43 18 135 10 135
-4 0 -10 -21 -14 -46z"/>
<path d="M2234 4760 c10 -81 17 -110 25 -110 10 0 -11 146 -23 157 -4 4 -5
-16 -2 -47z"/>
<path d="M2856 4783 c-14 -73 -18 -135 -8 -129 5 3 13 38 17 77 7 71 2 105 -9
52z"/>
<path d="M2150 4795 c0 -22 28 -157 34 -162 16 -16 -9 144 -25 162 -6 6 -9 6
-9 0z"/>
<path d="M2936 4779 c-10 -46 -26 -130 -26 -134 0 -3 4 -5 9 -5 10 0 37 148
28 156 -3 4 -8 -4 -11 -17z"/>
<path d="M2074 4765 c3 -9 11 -45 18 -80 6 -36 16 -65 21 -65 5 0 7 10 4 23
-3 12 -11 48 -17 80 -6 31 -16 57 -22 57 -5 0 -7 -7 -4 -15z"/>
<path d="M2999 4704 c-8 -41 -12 -77 -8 -80 4 -2 13 22 19 53 6 32 14 68 17
81 3 12 1 22 -4 22 -5 0 -16 -34 -24 -76z"/>
<path d="M2000 4757 c0 -29 32 -147 40 -147 9 0 -17 126 -31 150 -7 13 -8 12
-9 -3z"/>
<path d="M3097 4763 c-7 -11 -37 -128 -37 -144 0 -32 19 12 33 76 14 66 16 87
4 68z"/>
<path d="M1750 4738 c0 -32 83 -238 96 -238 8 0 14 6 13 13 -1 27 -85 231 -96
235 -7 2 -13 -2 -13 -10z"/>
<path d="M3157 4700 c-27 -93 -31 -113 -20 -107 13 8 46 132 41 149 -3 7 -12
-12 -21 -42z"/>
<path d="M3335 4740 c-9 -14 -85 -221 -85 -231 0 -5 6 -9 14 -9 13 0 96 206
96 238 0 14 -16 16 -25 2z"/>
<path d="M1924 4723 c3 -10 12 -44 21 -75 9 -32 20 -58 24 -58 5 0 -1 34 -13
75 -11 41 -25 75 -29 75 -5 0 -6 -8 -3 -17z"/>
<path d="M1855 4679 c8 -22 19 -58 25 -80 6 -22 15 -37 20 -34 10 6 -38 155
-50 155 -5 0 -3 -18 5 -41z"/>
<path d="M3222 4652 c-22 -69 -28 -101 -15 -89 5 6 52 143 53 155 0 1 -4 2 -8
2 -4 0 -18 -31 -30 -68z"/>
<path d="M1702 4647 c3 -31 1 -33 -256 -123 -103 -37 -109 -41 -358 -259 -26
-23 -40 -29 -47 -22 -7 7 -11 7 -11 1 0 -14 42 -53 54 -51 5 1 15 -9 24 -23
l14 -25 -21 25 c-11 14 -21 20 -21 14 0 -6 7 -17 14 -24 8 -6 49 -70 91 -141
42 -71 79 -129 83 -129 4 0 84 34 177 75 148 66 187 88 300 173 72 54 140 105
153 113 l22 16 -72 123 c-39 68 -82 134 -95 148 -23 25 -31 48 -13 37 9 -6
-25 83 -36 95 -3 3 -4 -8 -2 -23z m38 -128 c0 -5 -4 -9 -8 -9 -15 0 -32 24
-32 45 1 19 1 19 20 -4 11 -13 20 -27 20 -32z m-39 -21 c-4 -4 -20 -10 -37
-14 -26 -5 -32 -2 -42 21 -15 32 -16 29 23 42 27 9 32 7 46 -16 9 -14 14 -29
10 -33z m-81 -25 c0 -11 -4 -11 -20 -3 -11 6 -20 20 -20 32 0 20 1 21 20 3 11
-10 20 -24 20 -32z m-52 12 c16 -35 17 -33 -24 -50 -46 -19 -41 -20 -59 15
-15 30 -15 30 17 44 46 20 53 19 66 -9z m-88 -66 c0 -5 -4 -9 -8 -9 -15 0 -32
24 -32 45 1 19 1 19 20 -4 11 -13 20 -27 20 -32z m-40 -14 c0 -10 -39 -35 -55
-35 -2 0 -11 12 -19 27 -13 26 -13 29 12 46 26 17 28 17 45 -4 9 -12 17 -27
17 -34z m-80 -41 c0 -19 -16 -18 -24 2 -11 27 -7 37 9 24 8 -7 15 -19 15 -26z
m-39 -13 c16 -28 16 -29 -16 -54 l-33 -26 -16 24 c-9 13 -16 27 -16 30 0 7 52
54 60 55 3 0 12 -13 21 -29z m-81 -70 c13 -26 13 -31 -4 -25 -16 6 -29 44 -15
44 4 0 13 -9 19 -19z m-30 -32 c7 -12 3 -22 -15 -39 l-23 -22 -18 26 c-16 26
-16 28 6 51 24 26 26 25 50 -16z m-66 -56 c4 -9 4 -18 2 -20 -8 -8 -23 6 -29
26 -6 24 18 18 27 -6z"/>
<path d="M3366 4595 c-16 -42 -27 -78 -24 -81 5 -4 22 33 65 144 3 6 1 12 -4
12 -4 0 -21 -34 -37 -75z"/>
<path d="M3441 4576 c-17 -38 -30 -74 -28 -80 2 -6 18 20 36 58 17 39 30 75
27 80 -2 6 -18 -20 -35 -58z"/>
<path d="M3507 4535 c-20 -41 -33 -75 -29 -75 10 0 78 138 71 144 -3 3 -22
-28 -42 -69z"/>
<path d="M3577 4505 c-48 -91 -42 -109 7 -21 20 37 36 72 33 79 -2 6 -20 -20
-40 -58z"/>
<path d="M3663 4498 c-11 -18 -30 -50 -42 -70 -13 -21 -18 -38 -12 -38 12 0
86 128 78 136 -2 3 -14 -10 -24 -28z"/>
<path d="M3715 4436 c-40 -62 -54 -93 -38 -83 15 9 86 128 80 134 -3 3 -22
-20 -42 -51z"/>
<path d="M3772 4384 c-24 -36 -41 -68 -38 -72 3 -3 8 -3 9 -1 14 16 87 129 87
133 0 19 -20 -2 -58 -60z"/>
<path d="M2460 4280 c0 -118 2 -140 15 -140 12 0 15 20 15 117 l0 117 49 -84
c27 -47 57 -100 67 -117 11 -18 27 -33 37 -33 15 0 17 13 17 140 0 118 -2 140
-15 140 -12 0 -15 -19 -15 -112 l0 -112 -66 112 c-47 80 -71 112 -85 112 -18
0 -19 -9 -19 -140z"/>
<path d="M3836 4340 c-41 -56 -54 -80 -42 -80 9 0 98 132 93 137 -3 3 -26 -23
-51 -57z"/>
<path d="M3896 4293 c-42 -54 -58 -81 -38 -69 17 10 103 126 93 126 -5 0 -30
-26 -55 -57z"/>
<path d="M4034 4342 c-20 -14 -154 -180 -154 -191 0 -29 31 -3 104 85 46 55
75 99 70 104 -5 5 -14 6 -20 2z"/>
<path d="M4011 4193 c-27 -32 -48 -59 -46 -62 7 -6 31 17 76 70 57 69 31 61
-30 -8z"/>
<path d="M4072 4147 c-50 -51 -61 -67 -44 -67 10 0 106 110 100 115 -2 3 -28
-19 -56 -48z"/>
<path d="M1021 4133 c56 -60 69 -71 69 -56 0 11 -103 113 -114 113 -5 0 15
-26 45 -57z"/>
<path d="M920 4134 c0 -13 108 -119 114 -113 3 3 -21 32 -54 64 -33 33 -60 55
-60 49z"/>
<path d="M4120 4085 c-29 -30 -52 -57 -49 -59 3 -3 32 21 64 54 33 33 55 60
49 60 -5 0 -34 -25 -64 -55z"/>
<path d="M860 4076 c0 -12 107 -106 120 -106 8 0 -12 25 -45 55 -54 49 -75 63
-75 51z"/>
<path d="M4171 4029 c-29 -27 -51 -53 -47 -56 6 -6 113 86 115 100 2 16 -16 4
-68 -44z"/>
<path d="M810 4013 c0 -11 120 -107 126 -101 5 6 -109 108 -120 108 -3 0 -6
-3 -6 -7z"/>
<path d="M4222 3972 c-60 -54 -71 -79 -14 -33 85 69 97 80 82 80 -8 0 -39 -21
-68 -47z"/>
<path d="M760 3953 c0 -5 24 -27 53 -49 64 -49 77 -58 77 -47 0 5 -24 27 -52
49 -65 49 -78 58 -78 47z"/>
<path d="M4268 3912 c-32 -26 -53 -48 -48 -50 7 -3 130 86 130 95 0 13 -34 -5
-82 -45z"/>
<path d="M4321 3854 c-34 -25 -60 -48 -58 -51 7 -7 127 77 127 88 0 13 -1 13
-69 -37z"/>
<path d="M716 3881 c33 -30 127 -92 131 -87 4 3 4 8 2 9 -39 33 -121 87 -131
87 -7 0 -8 -3 -2 -9z"/>
<path d="M670 3823 c0 -12 129 -98 136 -91 3 4 -21 24 -53 45 -77 52 -83 56
-83 46z"/>
<path d="M4357 3789 c-32 -23 -56 -43 -53 -46 5 -5 136 75 136 83 0 13 -32 -2
-83 -37z"/>
<path d="M1744 3765 c27 -42 38 -57 135 -195 33 -47 94 -134 136 -195 41 -60
91 -132 111 -160 19 -27 56 -81 82 -119 26 -37 61 -87 77 -111 17 -23 45 -64
63 -89 32 -47 41 -76 22 -76 -5 0 7 -28 28 -62 27 -43 44 -62 60 -63 12 -1 22
4 22 12 0 7 7 13 15 13 16 0 21 16 7 22 -5 2 -26 26 -46 55 l-37 52 38 17 c21
9 50 19 65 23 l27 6 -62 66 c-34 37 -98 106 -142 155 -44 49 -91 100 -105 114
-14 15 -54 60 -90 101 -36 41 -118 131 -182 201 -65 70 -118 134 -118 143 0 9
-4 14 -9 11 -5 -4 -35 22 -66 56 -45 49 -52 54 -31 23z"/>
<path d="M4408 3729 c-38 -23 -68 -46 -68 -51 0 -6 10 -4 23 4 12 8 43 27 69
44 27 16 48 32 48 37 0 10 2 11 -72 -34z"/>
<path d="M621 3755 c19 -19 133 -85 142 -82 12 4 -116 87 -134 87 -7 0 -10 -2
-8 -5z"/>
<path d="M540 3716 c0 -8 48 -42 106 -75 96 -55 124 -65 124 -42 0 8 -210 131
-223 131 -4 0 -7 -6 -7 -14z"/>
<path d="M4450 3670 c-120 -70 -117 -67 -103 -81 13 -13 223 106 223 127 0 8
-3 14 -8 14 -4 0 -54 -27 -112 -60z"/>
<path d="M550 3621 c0 -12 131 -84 138 -76 7 7 9 5 -70 48 -38 20 -68 33 -68
28z"/>
<path d="M4477 3592 c-37 -20 -63 -38 -58 -40 12 -4 127 54 136 68 11 17 -8
11 -78 -28z"/>
<path d="M512 3549 c5 -14 148 -82 148 -71 0 4 -34 25 -76 45 -42 21 -74 32
-72 26z"/>
<path d="M4520 3529 c-71 -34 -76 -36 -68 -45 6 -5 148 62 148 71 0 10 -16 5
-80 -26z"/>
<path d="M2652 3138 c-51 -215 -91 -392 -90 -393 2 -1 19 -5 38 -9 l35 -6 58
396 c32 218 57 398 55 400 -2 1 -45 -173 -96 -388z"/>
<path d="M4548 3458 c-38 -17 -68 -35 -68 -40 0 -4 17 -1 38 8 20 9 54 23 75
32 20 8 37 19 37 24 0 12 -8 10 -82 -24z"/>
<path d="M480 3475 c0 -10 130 -67 143 -62 6 2 -14 15 -45 29 -68 31 -98 41
-98 33z"/>
<path d="M4583 3389 c-40 -17 -73 -35 -73 -39 0 -5 34 5 75 22 41 17 75 34 75
39 0 11 7 13 -77 -22z"/>
<path d="M446 3401 c11 -11 133 -61 148 -61 21 0 -10 19 -73 44 -67 27 -92 33
-75 17z"/>
<path d="M420 3331 c0 -10 140 -64 148 -56 8 7 4 9 -75 38 -40 15 -73 23 -73
18z"/>
<path d="M4596 3312 c-38 -14 -64 -28 -57 -30 14 -5 130 35 146 49 16 16 -17
9 -89 -19z"/>
<path d="M4632 3243 c-40 -14 -71 -28 -68 -31 8 -8 156 39 156 50 0 11 -5 10
-88 -19z"/>
<path d="M396 3251 c14 -13 144 -54 151 -47 6 6 6 6 -81 36 -64 22 -86 25 -70
11z"/>
<path d="M370 3179 c0 -4 24 -14 53 -23 84 -24 113 -29 104 -20 -12 13 -157
53 -157 43z"/>
<path d="M4651 3170 c-67 -20 -86 -30 -57 -30 25 0 129 30 141 41 14 13 -12
10 -84 -11z"/>
<path d="M3353 3115 c-11 -8 -171 -107 -354 -220 -183 -113 -328 -205 -323
-205 5 0 18 -14 28 -31 18 -31 18 -31 40 -11 11 11 154 117 316 237 162 120
302 224 310 231 19 18 10 18 -17 -1z"/>
<path d="M4680 3098 c-76 -20 -87 -24 -79 -33 5 -5 148 31 157 39 13 14 -7 12
-78 -6z"/>
<path d="M350 3103 c0 -10 148 -48 156 -40 6 6 -5 9 -76 27 -25 6 -53 13 -62
16 -10 3 -18 1 -18 -3z"/>
<path d="M4688 3022 c-38 -8 -68 -19 -68 -24 0 -5 8 -7 18 -4 9 3 45 10 80 17
34 6 62 16 62 20 0 11 -8 10 -92 -9z"/>
<path d="M334 3023 c12 -12 156 -42 156 -32 0 5 -10 11 -22 14 -119 27 -147
30 -134 18z"/>
<path d="M260 2961 c0 -15 8 -18 132 -40 139 -25 128 -24 128 -6 0 8 -1 15 -3
15 -1 0 -49 9 -107 20 -117 22 -150 25 -150 11z"/>
<path d="M4740 2958 c-25 -5 -69 -14 -97 -19 -35 -7 -53 -15 -53 -25 0 -17
-11 -18 128 7 124 22 132 25 132 40 0 11 -49 10 -110 -3z"/>
<path d="M305 2869 c-5 -7 27 -14 115 -25 32 -4 52 -3 47 2 -11 12 -157 33
-162 23z"/>
<path d="M4701 2869 c-30 -5 -57 -12 -60 -15 -9 -10 142 6 159 17 19 11 -24
10 -99 -2z"/>
<path d="M295 2790 c-5 -8 81 -20 135 -19 l35 1 -30 8 c-44 12 -135 18 -140
10z"/>
<path d="M4693 2793 c-24 -2 -43 -8 -43 -13 0 -10 107 -2 150 11 19 6 15 7
-20 6 -25 0 -64 -2 -87 -4z"/>
<path d="M1578 2763 c7 -3 16 -2 19 1 4 3 -2 6 -13 5 -11 0 -14 -3 -6 -6z"/>
<path d="M1615 2755 c6 -3 183 -45 395 -95 212 -50 391 -93 399 -95 10 -4 12
1 8 16 -3 12 -2 31 4 41 5 10 8 18 6 18 -2 0 -183 27 -402 60 -372 56 -436 65
-410 55z"/>
<path d="M290 2711 c0 -4 35 -11 77 -14 70 -5 94 -3 82 7 -9 8 -159 15 -159 7z"/>
<path d="M4670 2710 c-19 -12 57 -13 115 -1 36 8 34 9 -30 10 -38 0 -77 -4
-85 -9z"/>
<path d="M4730 2641 c-41 -3 -70 -9 -65 -12 16 -9 165 2 159 12 -3 5 -8 8 -12
7 -4 -1 -41 -4 -82 -7z"/>
<path d="M285 2630 c3 -5 43 -10 88 -9 56 1 74 3 57 9 -37 12 -152 12 -145 0z"/>
<path d="M634 2623 c3 -10 14 -56 26 -103 40 -160 40 -160 59 -160 15 0 24 20
47 110 16 60 31 104 35 97 3 -7 16 -56 28 -109 19 -82 26 -98 42 -98 10 0 19
1 19 3 0 1 18 64 39 140 35 126 37 137 20 137 -19 0 -23 -9 -57 -155 l-19 -80
-27 118 c-23 99 -30 117 -47 117 -10 0 -19 -1 -19 -2 0 -2 -13 -54 -29 -117
-17 -68 -31 -106 -34 -95 -3 10 -15 63 -28 117 -18 82 -24 97 -41 97 -14 0
-18 -5 -14 -17z"/>
<path d="M4290 2500 l0 -140 75 0 c60 0 75 3 75 15 0 12 -13 15 -60 15 l-60 0
0 50 0 50 55 0 c42 0 55 3 55 15 0 12 -13 15 -55 15 l-55 0 0 45 0 45 60 0
c47 0 60 3 60 15 0 12 -15 15 -75 15 l-75 0 0 -140z"/>
<path d="M2724 2572 c-1 -9 -4 -28 -8 -42 -6 -22 -4 -26 16 -27 13 -2 191 -28
397 -58 205 -31 377 -55 382 -53 4 2 -164 43 -374 92 -210 49 -389 93 -397 97
-11 5 -16 2 -16 -9z"/>
<path d="M4665 2560 c-4 -6 25 -10 80 -10 55 0 84 4 80 10 -3 6 -39 10 -80 10
-41 0 -77 -4 -80 -10z"/>
<path d="M285 2550 c3 -5 39 -10 80 -10 41 0 77 5 80 10 4 6 -25 10 -80 10
-55 0 -84 -4 -80 -10z"/>
<path d="M2090 2279 c-179 -132 -329 -245 -335 -251 -5 -6 49 26 120 69 615
377 625 383 595 383 -7 0 -23 9 -35 20 l-20 19 -325 -240z"/>
<path d="M345 2481 c-38 -3 -65 -8 -60 -11 17 -9 166 1 160 11 -4 5 -12 8 -18
7 -7 -1 -43 -4 -82 -7z"/>
<path d="M4680 2480 c37 -12 152 -12 145 0 -3 6 -43 10 -88 9 -56 -1 -74 -3
-57 -9z"/>
<path d="M2623 2452 c-11 -11 -8 -21 19 -58 65 -88 64 -79 11 -99 -27 -10 -51
-21 -55 -24 -5 -4 35 -54 88 -111 53 -58 157 -172 231 -255 158 -175 267 -295
341 -374 28 -31 52 -64 52 -73 0 -10 6 -18 14 -18 7 0 33 -19 56 -42 l42 -43
-26 52 c-14 29 -26 59 -26 68 0 8 -5 15 -10 15 -6 0 -30 39 -54 88 -48 97
-164 322 -248 482 -31 58 -88 168 -127 245 -40 76 -74 141 -76 144 -8 7 -37
-22 -62 -62 -28 -45 -38 -41 -80 33 -21 38 -32 47 -52 46 -13 0 -31 -7 -38
-14z"/>
<path d="M2496 2412 c-13 -62 -117 -775 -114 -783 2 -5 46 172 99 394 52 221
95 402 95 403 -1 1 -18 4 -38 7 -34 5 -37 3 -42 -21z"/>
<path d="M4660 2411 c0 -4 35 -11 77 -14 70 -5 94 -3 82 7 -9 8 -159 15 -159
7z"/>
<path d="M320 2400 c-28 -6 -22 -8 35 -9 39 0 77 4 85 9 18 12 -65 12 -120 0z"/>
<path d="M361 2329 c-66 -8 -93 -19 -49 -19 56 0 148 13 148 21 0 10 -9 10
-99 -2z"/>
<path d="M4652 2335 c9 -9 152 -23 163 -16 6 3 -10 9 -35 13 -56 8 -135 10
-128 3z"/>
<path d="M4643 2264 c11 -12 157 -33 162 -23 5 7 -27 14 -115 25 -32 4 -52 3
-47 -2z"/>
<path d="M353 2251 c-24 -4 -46 -11 -50 -15 -9 -9 105 2 145 14 24 7 22 8 -13
8 -22 0 -59 -4 -82 -7z"/>
<path d="M380 2188 c-58 -11 -109 -23 -114 -28 -20 -20 7 -23 82 -11 139 23
172 32 172 47 0 17 -7 17 -140 -8z"/>
<path d="M4590 2196 c0 -15 33 -24 172 -47 74 -12 102 -9 82 10 -7 7 -222 51
-249 51 -3 0 -5 -6 -5 -14z"/>
<path d="M4620 2120 c0 -10 14 -14 93 -30 32 -7 61 -9 64 -6 7 7 -5 11 -89 29
-38 8 -68 11 -68 7z"/>
<path d="M403 2103 c-40 -9 -73 -20 -73 -25 0 -6 10 -8 23 -4 12 3 48 11 80
17 31 6 57 16 57 20 0 10 5 11 -87 -8z"/>
<path d="M460 2038 c-19 -5 -52 -14 -72 -19 -21 -5 -38 -14 -38 -18 0 -5 36 0
80 11 44 11 80 24 80 29 0 11 -4 10 -50 -3z"/>
<path d="M4602 2044 c5 -4 141 -43 156 -44 1 0 2 4 2 8 0 5 -33 16 -72 25 -77
18 -95 21 -86 11z"/>
<path d="M4583 1974 c12 -13 157 -53 157 -43 0 4 -24 14 -52 23 -85 24 -114
29 -105 20z"/>
<path d="M433 1952 c-49 -16 -78 -32 -57 -32 14 0 146 39 152 45 11 10 -44 3
-95 -13z"/>
<path d="M4566 1901 c14 -13 144 -54 151 -47 6 6 6 6 -81 36 -64 22 -86 25
-70 11z"/>
<path d="M455 1878 c-65 -22 -71 -25 -63 -33 5 -5 147 40 156 50 11 11 -36 2
-93 -17z"/>
<path d="M4540 1832 c0 -4 34 -19 75 -34 41 -15 75 -23 75 -19 0 5 -32 20 -71
35 -78 29 -79 29 -79 18z"/>
<path d="M510 1815 c-81 -30 -92 -36 -87 -41 6 -6 157 45 157 52 0 8 -36 2
-70 -11z"/>
<path d="M523 1738 c-80 -33 -102 -59 -25 -29 76 31 102 44 102 53 0 4 -1 8
-2 7 -2 0 -36 -14 -75 -31z"/>
<path d="M4516 1761 c11 -11 133 -61 148 -61 21 0 -10 19 -73 44 -67 27 -92
33 -75 17z"/>
<path d="M555 1668 c-77 -34 -81 -36 -73 -43 7 -7 148 56 148 66 0 11 6 13
-75 -23z"/>
<path d="M4486 1692 c17 -16 136 -64 141 -58 4 3 -24 19 -60 36 -65 29 -101
39 -81 22z"/>
<path d="M4450 1632 c0 -4 34 -25 76 -45 42 -21 74 -32 72 -26 -5 14 -148 82
-148 71z"/>
<path d="M576 1594 c-37 -19 -66 -38 -63 -41 8 -7 147 58 147 68 0 14 -10 10
-84 -27z"/>
<path d="M4420 1563 c0 -11 140 -84 140 -73 0 7 -123 80 -135 80 -3 0 -5 -3
-5 -7z"/>
<path d="M618 1530 c-50 -26 -80 -50 -63 -50 8 0 77 36 118 60 49 31 9 23 -55
-10z"/>
<path d="M645 1470 c-55 -32 -101 -66 -103 -74 -2 -9 0 -16 4 -16 19 0 224
125 221 134 -6 19 -23 13 -122 -44z"/>
<path d="M4345 1519 c-4 -6 -5 -12 -3 -14 9 -10 213 -125 220 -125 5 0 8 6 8
14 0 11 -198 136 -215 136 -2 0 -7 -5 -10 -11z"/>
<path d="M700 1399 c-75 -47 -75 -47 -69 -54 7 -6 139 76 139 86 0 12 2 13
-70 -32z"/>
<path d="M4340 1436 c0 -9 132 -87 141 -84 6 2 -19 22 -56 46 -60 38 -85 49
-85 38z"/>
<path d="M4300 1375 c0 -2 26 -22 58 -43 76 -51 82 -55 82 -45 0 4 -28 27 -63
51 -58 39 -77 49 -77 37z"/>
<path d="M731 1328 c-35 -23 -59 -44 -53 -46 11 -3 132 74 132 83 0 11 -19 2
-79 -37z"/>
<path d="M4260 1313 c1 -12 120 -95 131 -91 6 2 -19 25 -55 51 -68 48 -76 53
-76 40z"/>
<path d="M780 1270 c-30 -22 -57 -45 -59 -51 -2 -8 1 -9 10 -4 29 17 119 86
119 90 0 11 -18 2 -70 -35z"/>
<path d="M4220 1253 c0 -5 24 -27 53 -49 64 -49 77 -58 77 -47 0 5 -24 27 -52
49 -65 49 -78 58 -78 47z"/>
<path d="M817 1202 c-32 -26 -54 -48 -48 -50 9 -3 58 32 126 90 5 5 3 8 -5 7
-8 0 -41 -21 -73 -47z"/>
<path d="M880 1153 c-74 -61 -76 -63 -59 -63 16 1 126 96 119 103 -3 3 -30
-15 -60 -40z"/>
<path d="M4225 1145 c58 -53 75 -63 75 -47 0 9 -115 102 -126 102 -5 -1 18
-25 51 -55z"/>
<path d="M922 1089 c-29 -28 -51 -54 -48 -57 6 -5 108 85 114 100 9 21 -18 3
-66 -43z"/>
<path d="M4120 1137 c0 -7 122 -108 126 -104 7 7 -99 107 -113 107 -7 0 -13
-1 -13 -3z"/>
<path d="M975 1030 c-33 -33 -55 -60 -49 -60 13 0 119 108 113 114 -3 3 -32
-21 -64 -54z"/>
<path d="M4125 1030 c32 -33 61 -57 64 -54 6 6 -100 114 -113 114 -6 0 16 -27
49 -60z"/>
<path d="M4020 1033 c0 -11 103 -113 114 -113 9 0 -92 112 -106 118 -5 2 -8 0
-8 -5z"/>
<path d="M1027 976 c-64 -74 -59 -82 8 -16 30 30 55 58 55 62 0 19 -19 5 -63
-46z"/>
<path d="M2522 1000 c-28 -12 -46 -51 -38 -84 4 -18 22 -34 56 -51 61 -31 75
-53 53 -85 -14 -20 -22 -22 -64 -17 -38 5 -49 3 -49 -8 0 -8 15 -17 35 -21
133 -25 174 112 47 157 -80 28 -51 106 32 85 16 -4 26 -1 29 8 10 25 -53 35
-101 16z"/>
<path d="M3970 984 c0 -6 25 -37 55 -70 30 -32 54 -54 54 -49 0 6 -24 37 -54
70 -30 33 -54 55 -55 49z"/>
<path d="M1081 923 c-27 -32 -48 -59 -46 -62 7 -6 31 17 76 70 57 69 31 61
-30 -8z"/>
<path d="M1126 874 c-46 -55 -75 -99 -70 -104 5 -5 14 -6 20 -2 20 14 154 180
154 191 0 29 -31 3 -104 -85z"/>
<path d="M3880 959 c0 -11 134 -177 154 -191 6 -4 15 -3 20 2 5 5 -24 49 -70
104 -73 88 -104 114 -104 85z"/>
<path d="M1202 828 c-46 -58 -57 -79 -34 -64 17 10 95 116 90 122 -3 2 -28
-23 -56 -58z"/>
<path d="M3857 878 c5 -7 27 -35 48 -63 22 -27 41 -52 42 -54 2 -2 6 -2 9 2 8
7 -85 127 -99 127 -6 0 -6 -5 0 -12z"/>
<path d="M1265 784 c-26 -36 -45 -68 -42 -71 6 -6 97 114 97 128 0 17 -9 8
-55 -57z"/>
<path d="M3796 838 c7 -11 81 -115 91 -127 1 -2 6 -2 9 1 7 7 -86 138 -98 138
-5 0 -6 -6 -2 -12z"/>
<path d="M3737 804 c-3 -4 12 -34 35 -68 50 -75 47 -71 54 -64 3 4 -14 36 -39
72 -24 36 -47 63 -50 60z"/>
<path d="M1322 734 c-24 -36 -41 -68 -38 -72 3 -3 8 -3 9 -1 14 16 87 129 87
133 0 19 -20 -2 -58 -60z"/>
<path d="M3670 763 c1 -15 86 -143 92 -137 4 3 -12 35 -34 70 -39 62 -58 84
-58 67z"/>
<path d="M1395 704 c-42 -66 -54 -91 -37 -80 16 9 85 126 79 132 -3 3 -22 -20
-42 -52z"/>
<path d="M3610 723 c0 -11 70 -132 80 -138 17 -11 11 5 -30 76 -38 64 -50 79
-50 62z"/>
<path d="M1454 654 c-39 -69 -42 -101 -4 -37 13 21 32 53 42 71 11 17 15 32 9
32 -5 0 -27 -29 -47 -66z"/>
<path d="M1526 626 c-20 -37 -36 -72 -33 -79 2 -6 20 20 40 58 21 38 36 74 34
79 -2 5 -20 -21 -41 -58z"/>
<path d="M3569 633 c30 -60 60 -104 61 -90 0 16 -71 147 -80 147 -6 0 3 -26
19 -57z"/>
<path d="M3480 650 c0 -10 57 -129 66 -139 2 -2 7 -2 10 1 5 6 -62 148 -71
148 -3 0 -5 -5 -5 -10z"/>
<path d="M1590 580 c-18 -38 -32 -72 -29 -74 3 -3 22 28 42 69 20 41 33 75 29
75 -5 0 -23 -31 -42 -70z"/>
<path d="M3415 612 c13 -45 57 -132 65 -132 10 0 -45 129 -62 145 -7 7 -8 3
-3 -13z"/>
<path d="M1661 556 c-17 -39 -30 -75 -27 -80 5 -14 68 124 63 138 -2 6 -18
-20 -36 -58z"/>
<path d="M1791 498 c-44 -120 -48 -142 -28 -136 11 4 95 208 96 236 1 6 -5 12
-13 12 -9 0 -29 -43 -55 -112z"/>
<path d="M3251 598 c1 -28 85 -232 97 -236 19 -6 15 16 -29 136 -26 69 -46
112 -55 112 -8 0 -14 -6 -13 -12z"/>
<path d="M1735 533 c-15 -37 -29 -74 -32 -80 -3 -7 -1 -13 4 -13 10 0 68 148
61 156 -3 3 -18 -26 -33 -63z"/>
<path d="M3343 588 c45 -116 61 -150 65 -140 5 16 -49 152 -61 152 -5 0 -7 -6
-4 -12z"/>
<path d="M1896 539 c-2 -8 -12 -39 -22 -69 -9 -30 -19 -61 -22 -67 -2 -7 0
-13 5 -13 12 0 59 148 50 156 -4 4 -9 1 -11 -7z"/>
<path d="M3208 544 c-8 -7 42 -154 52 -154 6 0 -35 148 -44 157 -1 2 -5 0 -8
-3z"/>
<path d="M1965 509 c-26 -71 -44 -162 -30 -147 10 10 47 150 41 155 -3 3 -8 0
-11 -8z"/>
<path d="M3154 445 c11 -41 25 -75 29 -75 5 0 6 8 3 18 -3 9 -12 43 -21 75 -9
31 -20 57 -24 57 -5 0 1 -34 13 -75z"/>
<path d="M2037 493 c-3 -4 -10 -35 -17 -68 -7 -33 -15 -66 -18 -74 -3 -8 -1
-12 5 -8 12 8 48 145 40 153 -3 3 -7 2 -10 -3z"/>
<path d="M3077 433 c17 -74 32 -112 33 -80 0 29 -32 147 -40 147 -5 0 -1 -30
7 -67z"/>
<path d="M2100 433 c-6 -32 -14 -68 -17 -80 -3 -13 -1 -23 4 -23 11 0 42 149
32 156 -4 2 -13 -22 -19 -53z"/>
<path d="M2546 483 c-3 -3 -6 -64 -6 -135 0 -107 2 -128 15 -128 13 0 15 21
15 129 0 118 -6 152 -24 134z"/>
<path d="M2993 468 c3 -13 11 -49 17 -80 6 -32 16 -58 22 -58 5 0 7 7 4 15 -3
9 -11 45 -18 80 -6 36 -16 65 -21 65 -5 0 -7 -10 -4 -22z"/>
<path d="M2920 463 c0 -33 22 -137 31 -147 12 -13 11 -4 -5 82 -14 73 -26 103
-26 65z"/>
<path d="M2172 406 c-13 -70 -15 -103 -6 -93 5 4 34 138 34 155 0 1 -4 2 -8 2
-5 0 -14 -29 -20 -64z"/>
<path d="M2256 452 c-2 -4 -7 -41 -10 -82 -7 -89 8 -66 18 28 6 57 4 73 -8 54z"/>
<path d="M2854 386 c13 -87 32 -118 22 -36 -10 81 -17 110 -25 110 -4 0 -2
-33 3 -74z"/>
<path d="M2326 405 c-14 -101 -15 -115 -6 -115 10 0 24 118 18 146 -3 10 -8
-3 -12 -31z"/>
<path d="M2406 439 c-9 -30 -16 -159 -8 -159 5 0 12 37 15 82 6 76 3 109 -7
77z"/>
<path d="M2701 405 c0 -27 4 -68 8 -90 8 -36 9 -33 9 30 0 39 -3 79 -8 90 -6
15 -9 7 -9 -30z"/>
<path d="M2775 403 c11 -89 16 -115 22 -110 9 9 -9 157 -19 157 -5 0 -7 -20
-3 -47z"/>
<path d="M2476 409 c-9 -49 -7 -129 4 -129 6 0 10 33 10 80 0 44 -2 80 -4 80
-2 0 -6 -14 -10 -31z"/>
<path d="M2624 418 c3 -13 6 -49 6 -81 0 -32 3 -56 8 -54 11 8 2 157 -10 157
-6 0 -8 -10 -4 -22z"/>
</g>
</svg>
