<?xml version="1.0" standalone="no"?>
<!DOCTYPE svg PUBLIC "-//W3C//DTD SVG 20010904//EN"
 "http://www.w3.org/TR/2001/REC-SVG-20010904/DTD/svg10.dtd">
<svg version="1.0" xmlns="http://www.w3.org/2000/svg"
 width="360.000000pt" height="360.000000pt" viewBox="0 0 360.000000 360.000000"
 preserveAspectRatio="xMidYMid meet">

<g transform="translate(0.000000,360.000000) scale(0.100000,-0.100000)"
fill="#000000" stroke="none">
<path d="M1670 3584 c-8 -3 -29 -12 -47 -20 -17 -8 -39 -14 -50 -14 -10 0 -27
-7 -37 -15 -11 -8 -27 -15 -37 -15 -26 0 -29 -20 -29 -183 0 -179 6 -196 70
-215 25 -7 52 -17 61 -22 9 -4 36 -11 61 -15 54 -8 62 0 59 61 -2 39 1 45 28
59 17 8 41 15 56 15 14 0 25 5 25 10 0 6 8 10 18 10 9 1 34 7 55 14 l37 14 0
-39 c0 -22 -5 -39 -11 -39 -6 0 -25 -6 -42 -14 -18 -8 -50 -20 -72 -27 -48
-14 -68 -27 -94 -61 -19 -24 -24 -73 -61 -669 -22 -354 -42 -679 -46 -721 l-6
-78 96 0 c53 0 96 1 96 3 0 1 -20 324 -45 717 -25 393 -45 718 -45 721 0 4 21
12 48 19 26 7 61 18 79 26 17 8 39 14 50 14 10 0 27 7 38 16 18 13 20 29 23
154 3 77 1 160 -2 184 -6 39 -11 45 -37 51 -16 4 -29 11 -29 16 0 5 -10 9 -22
9 -13 0 -36 7 -51 15 -31 16 -114 28 -137 19z m84 -19 c15 -8 38 -15 50 -15
12 0 26 -4 32 -9 5 -5 25 -13 44 -18 47 -12 44 -26 -7 -37 -24 -6 -43 -13 -43
-18 0 -4 -7 -8 -15 -8 -8 0 -35 -7 -60 -15 -41 -14 -50 -14 -92 0 -27 8 -57
20 -68 25 -11 5 -38 14 -60 21 l-40 12 30 13 c17 7 38 13 47 14 9 0 20 5 23
10 3 6 16 10 28 10 12 1 33 7 47 15 32 18 48 18 84 0z m-86 -218 c30 -7 42
-16 42 -28 0 -20 0 -20 -87 17 -17 8 -37 14 -44 14 -24 0 -89 34 -89 46 0 9
20 5 68 -13 37 -14 86 -30 110 -36z m272 51 c0 -12 -72 -48 -95 -48 -6 0 -21
-6 -35 -13 -40 -21 -90 -29 -90 -14 0 11 60 36 136 56 17 4 39 13 50 19 25 15
34 15 34 0z m-3 -63 c-4 -8 -13 -15 -22 -15 -21 0 -19 28 3 32 22 5 26 2 19
-17z m-407 -1 c0 -9 -7 -14 -17 -12 -25 5 -28 28 -4 28 12 0 21 -6 21 -16z
m347 -16 c-3 -8 -6 -5 -6 6 -1 11 2 17 5 13 3 -3 4 -12 1 -19z m-239 -12 c13
-14 -7 -22 -35 -14 -43 11 -44 33 -1 24 17 -3 33 -8 36 -10z m212 5 c0 -5 -13
-14 -30 -20 -24 -8 -30 -7 -30 4 0 7 6 16 13 18 21 9 47 8 47 -2z m-140 -42
c0 -24 -23 -21 -28 4 -2 10 3 17 12 17 10 0 16 -9 16 -21z m30 7 c0 -8 -4 -18
-10 -21 -5 -3 -10 3 -10 14 0 12 5 21 10 21 6 0 10 -6 10 -14z m-148 -46 c10
-6 26 -10 36 -10 11 0 33 -7 50 -16 27 -13 32 -21 32 -50 0 -30 -3 -34 -25
-34 -14 0 -25 4 -25 9 0 5 -13 11 -30 14 -16 4 -50 16 -74 27 -25 11 -50 20
-55 20 -6 0 -11 17 -11 39 l0 39 43 -14 c23 -8 50 -19 59 -24z"/>
</g>
</svg>
